<svg xmlns="http://www.w3.org/2000/svg" viewBox="0 -0.5 43 47" shape-rendering="crispEdges"><path stroke="#000a24" d="M17 1h1m14 11h1m-20 3h1M4 29h2m-2 1h1m4 0h1m-6 1h1m19 0h1m-13 6h1m-5 3h1m17 4h1"/><path stroke="#000828" d="M18 1h1m5 0h1m-9 9h1"/><path stroke="#00072a" d="M19 1h1m6 0h1"/><path stroke="#000924" d="M20 1h1m12 3h1m-1 3h1M12 8h1m4 0h1m7 7h1m1 0h1m2 0h1m3 2h1m-15 2h1m-4 9h1m1 0h1m9 0h1m-4 1h1M5 30h1m27 3h1m-7 1h1m-15 2h1m-2 5h1m19 0h1m-11 4h1m8 0h1"/><path stroke="#000827" d="M21 1h1M12 9h1m-3 10h1m-5 5h1m-3 4h1m8 6h1"/><path stroke="#000926" d="M22 1h1m10 4h1m-17 7h1m20 1h1M20 45h1m2 0h1m8 0h1"/><path stroke="#000925" d="M23 1h1m9 5h1m-5 9h1m-19 6h1M9 31h1m23 3h1m-21 1h1m-8 1h1m11 4h1m3 1h1m4 1h1"/><path stroke="#000a25" d="M25 1h1M12 22h1M4 32h1m-1 2h1m-1 1h1m19 8h1"/><path stroke="#00092c" d="M27 1h1"/><path stroke="#00052b" d="M28 1h1"/><path stroke="#00092b" d="M29 1h1m-2 11h1"/><path stroke="#00092a" d="M30 1h1M21 12h2"/><path stroke="#000b2b" d="M31 1h1M16 30h1"/><path stroke="#000a2b" d="M32 1h1"/><path stroke="#000a23" d="M17 2h1m0 12h1m3 26h1m-5 1h1"/><path stroke="#1c074c" d="M18 2h1"/><path stroke="#1f064d" d="M19 2h1m-2 3h1"/><path stroke="#20084d" d="M20 2h1m-1 1h1m-1 4h1m-2 1h2m-2 1h2m-1 1h2m-2 1h2"/><path stroke="#392c80" d="M21 2h1"/><path stroke="#362e84" d="M22 2h1"/><path stroke="#362b82" d="M23 2h1m7 4h1"/><path stroke="#372c82" d="M24 2h2m-5 1h1m9 0h1M22 5h1m9 2h1M22 8h1"/><path stroke="#6d61b2" d="M26 2h1m1 0h1"/><path stroke="#6e60b3" d="M27 2h1m1 0h1"/><path stroke="#3d3291" d="M30 2h1"/><path stroke="#362e80" d="M31 2h1M21 5h1m2 0h1"/><path stroke="#3a2d81" d="M32 2h1"/><path stroke="#000420" d="M33 2h1m-2 29h1"/><path stroke="#000324" d="M17 3h1"/><path stroke="#1d054e" d="M18 3h1"/><path stroke="#20044f" d="M19 3h1"/><path stroke="#392c85" d="M22 3h1"/><path stroke="#332d83" d="M23 3h1"/><path stroke="#362c82" d="M24 3h1"/><path stroke="#392f81" d="M25 3h1"/><path stroke="#6d61b3" d="M26 3h1"/><path stroke="#7162b4" d="M27 3h1"/><path stroke="#6e62b2" d="M28 3h1"/><path stroke="#6c63b3" d="M29 3h1"/><path stroke="#42308f" d="M30 3h1"/><path stroke="#3a2e80" d="M32 3h1"/><path stroke="#000623" d="M33 3h1"/><path stroke="#000524" d="M17 4h1m12 8h1M10 26h1m-1 1h1m-6 1h1"/><path stroke="#1c054d" d="M18 4h1"/><path stroke="#21084c" d="M19 4h1"/><path stroke="#1f054e" d="M20 4h1m-3 2h1"/><path stroke="#362c7e" d="M21 4h1"/><path stroke="#3a2f82" d="M22 4h1"/><path stroke="#372e81" d="M23 4h1m-3 2h1m10 0h1m-8 3h1m-2 1h1"/><path stroke="#3b2f7f" d="M24 4h1m-2 9h1"/><path stroke="#332c81" d="M25 4h1"/><path stroke="#6d60b2" d="M26 4h1"/><path stroke="#7161b2" d="M27 4h1m-2 1h1"/><path stroke="#6d5eb4" d="M28 4h1"/><path stroke="#6d63b3" d="M29 4h1"/><path stroke="#3f308f" d="M30 4h1"/><path stroke="#382d83" d="M31 4h1m-7 1h1m0 6h1"/><path stroke="#3a2c81" d="M32 4h1m1 12h1"/><path stroke="#000525" d="M17 5h1"/><path stroke="#1d0550" d="M19 5h1"/><path stroke="#1e084c" d="M20 5h1"/><path stroke="#372f81" d="M23 5h1"/><path stroke="#6d62b4" d="M27 5h1m-2 1h1m2 3h1"/><path stroke="#6d61b5" d="M28 5h1"/><path stroke="#6e64b4" d="M29 5h1"/><path stroke="#3c348d" d="M30 5h1"/><path stroke="#342e80" d="M31 5h1"/><path stroke="#392e81" d="M32 5h1m-9 4h1"/><path stroke="#000423" d="M13 6h1M6 26h1"/><path stroke="#00021e" d="M14 6h1"/><path stroke="#000522" d="M17 6h1m-1 7h1m11 7h1M7 21h1"/><path stroke="#19054e" d="M19 6h1"/><path stroke="#1e064f" d="M20 6h1"/><path stroke="#3c3082" d="M22 6h1"/><path stroke="#362d81" d="M23 6h1"/><path stroke="#392d84" d="M24 6h1m-4 3h1"/><path stroke="#352f81" d="M25 6h1"/><path stroke="#6f63b3" d="M27 6h1"/><path stroke="#6e61b3" d="M28 6h1"/><path stroke="#6e61b5" d="M29 6h1"/><path stroke="#3f3291" d="M30 6h1"/><path stroke="#000c24" d="M12 7h1"/><path stroke="#000823" d="M13 7h1m21 10h1m0 5h1m-24 1h1m-3 1h1m19 5h1M12 39h1m-4 1h1m8 3h1"/><path stroke="#190e50" d="M14 7h1"/><path stroke="#00031f" d="M15 7h1"/><path stroke="#000421" d="M16 7h1"/><path stroke="#000223" d="M17 7h1"/><path stroke="#20044d" d="M18 7h1"/><path stroke="#1d0351" d="M19 7h1"/><path stroke="#392c82" d="M21 7h1m1 1h1m1 3h1"/><path stroke="#362d84" d="M22 7h1"/><path stroke="#392b82" d="M23 7h1m7 4h1"/><path stroke="#372e84" d="M24 7h1"/><path stroke="#382e80" d="M25 7h1"/><path stroke="#6d64b1" d="M26 7h1"/><path stroke="#7064b2" d="M27 7h1"/><path stroke="#7161b4" d="M28 7h1m-1 3h1"/><path stroke="#6d63b1" d="M29 7h1"/><path stroke="#40338e" d="M30 7h1"/><path stroke="#3a2b84" d="M31 7h1"/><path stroke="#e38e7f" d="M13 8h1"/><path stroke="#000a2a" d="M14 8h1"/><path stroke="#2a1863" d="M15 8h1"/><path stroke="#2a1363" d="M16 8h1"/><path stroke="#1a064f" d="M18 8h1"/><path stroke="#372f7f" d="M21 8h1"/><path stroke="#372d84" d="M24 8h1"/><path stroke="#373081" d="M25 8h1"/><path stroke="#6c62b2" d="M26 8h1"/><path stroke="#6f63b1" d="M27 8h1"/><path stroke="#7061b3" d="M28 8h1"/><path stroke="#6d61b4" d="M29 8h1m-3 2h1"/><path stroke="#3b2f8f" d="M30 8h1"/><path stroke="#382885" d="M31 8h1"/><path stroke="#000724" d="M32 8h1m-1 3h1m4 2h1m-3 10h1m-18 5h1m-6 15h1m13 0h1"/><path stroke="#e38d7f" d="M13 9h1"/><path stroke="#000b24" d="M14 9h1m1 2h1m0 3h1m19 7h1m-4 3h1M20 34h1m15 3h1m-19 1h1m17 0h1m-1 1h1m-1 1h1m-18 4h1"/><path stroke="#241463" d="M15 9h1"/><path stroke="#2b1565" d="M16 9h1"/><path stroke="#000922" d="M17 9h1m-5 10h1m-7 4h1m10 6h1m6 1h1m-1 3h1M7 39h1"/><path stroke="#000921" d="M18 9h1m5 20h1m-1 3h1m-6 1h1m-10 2h1m24 1h1m-26 5h1"/><path stroke="#352d83" d="M22 9h1"/><path stroke="#362f85" d="M23 9h1"/><path stroke="#7262b2" d="M26 9h1"/><path stroke="#6b61b3" d="M27 9h1"/><path stroke="#6f61b2" d="M28 9h1"/><path stroke="#3e2f91" d="M30 9h1"/><path stroke="#362c83" d="M31 9h1m-9 1h1"/><path stroke="#000824" d="M32 9h1m-20 5h1m14 1h1M16 27h1m3 1h1m5 3h1m3 14h1"/><path stroke="#000b27" d="M12 10h1m9 24h1"/><path stroke="#e38a7d" d="M13 10h1M9 39h1"/><path stroke="#d97982" d="M14 10h1m0 1h1m-2 3h1m-1 1h1"/><path stroke="#000b29" d="M15 10h1"/><path stroke="#211060" d="M17 10h1"/><path stroke="#21115f" d="M18 10h1"/><path stroke="#000822" d="M19 10h1m-1 1h1m18 4h1M22 29h1m4 11h1m5 2h2m-2 1h1"/><path stroke="#382c83" d="M22 10h1"/><path stroke="#362d83" d="M25 10h1"/><path stroke="#7261b3" d="M26 10h1"/><path stroke="#6b61b5" d="M29 10h1"/><path stroke="#4e429b" d="M30 10h1"/><path stroke="#352b84" d="M31 10h1"/><path stroke="#000826" d="M32 10h1m-2 2h1M6 27h1m14 18h1"/><path stroke="#000a28" d="M12 11h1"/><path stroke="#e3d7da" d="M13 11h1m4 8h1m9 17h1m1 0h1m1 0h1m-13 1h1m3 0h1m4 0h1m-2 1h1m-1 1h1"/><path stroke="#df147b" d="M14 11h1m0 1h1m-1 1h1m-1 1h1m-1 1h1"/><path stroke="#25105e" d="M17 11h1"/><path stroke="#281060" d="M18 11h1"/><path stroke="#3a2d83" d="M22 11h1"/><path stroke="#382f82" d="M23 11h1"/><path stroke="#362f82" d="M24 11h1"/><path stroke="#6e5fb5" d="M27 11h1"/><path stroke="#7062b2" d="M28 11h1"/><path stroke="#6f62b4" d="M29 11h1"/><path stroke="#50419a" d="M30 11h1"/><path stroke="#000927" d="M12 12h1m-2 7h1"/><path stroke="#e0d6d6" d="M13 12h1"/><path stroke="#dc187a" d="M14 12h1"/><path stroke="#d97a85" d="M16 12h1"/><path stroke="#1d0c5a" d="M18 12h1"/><path stroke="#210e5e" d="M19 12h1"/><path stroke="#000726" d="M20 12h1m16 4h1m-26 7h1"/><path stroke="#000a29" d="M23 12h1"/><path stroke="#00062a" d="M24 12h1m2 0h1M14 32h1"/><path stroke="#000429" d="M25 12h1"/><path stroke="#00052a" d="M26 12h1"/><path stroke="#000627" d="M29 12h1M14 34h1"/><path stroke="#000523" d="M33 12h1m1 0h1M13 41h1m21 0h1m-10 2h1"/><path stroke="#000624" d="M34 12h1m-7 5h2m6 0h1m-9 1h1m-1 1h1m-1 1h1m-4 9h1M16 43h1"/><path stroke="#000825" d="M36 12h1m-13 3h1m1 0h1m-7 3h1m-10 7h1m-7 2h1m3 5h1m0 2h1m1 6h1"/><path stroke="#000b28" d="M12 13h1m-4 7h1"/><path stroke="#e3958d" d="M13 13h1"/><path stroke="#de1376" d="M14 13h1"/><path stroke="#d77b89" d="M16 13h1"/><path stroke="#210851" d="M18 13h1m2 0h1"/><path stroke="#220b4e" d="M19 13h1"/><path stroke="#1d0851" d="M20 13h1"/><path stroke="#1f084f" d="M22 13h1"/><path stroke="#393088" d="M24 13h1m-2 1h4"/><path stroke="#393185" d="M25 13h1"/><path stroke="#6759b1" d="M26 13h1"/><path stroke="#6959b1" d="M27 13h1"/><path stroke="#655cb0" d="M28 13h1"/><path stroke="#675ab2" d="M29 13h1m-3 1h6"/><path stroke="#6459b1" d="M30 13h1"/><path stroke="#6659b1" d="M31 13h1"/><path stroke="#675db2" d="M32 13h1"/><path stroke="#665cb1" d="M33 13h1"/><path stroke="#685fb2" d="M34 13h1"/><path stroke="#342981" d="M35 13h1"/><path stroke="#362b7f" d="M36 13h1"/><path stroke="#d88184" d="M16 14h1"/><path stroke="#000723" d="M19 14h4m0 1h1m-3 2h1m-1 1h1m7 0h1m-9 1h1m-1 1h1m5 9h1M11 41h1m1 1h1m10 2h1"/><path stroke="#655bb4" d="M33 14h1"/><path stroke="#6a5db3" d="M34 14h1"/><path stroke="#372d7d" d="M35 14h1"/><path stroke="#3a2a7f" d="M36 14h1"/><path stroke="#342e7e" d="M37 14h1"/><path stroke="#000622" d="M38 14h1M7 22h1M6 37h1m10 6h1m7 1h1"/><path stroke="#da8082" d="M16 15h1"/><path stroke="#d26079" d="M17 15h1"/><path stroke="#e17d7a" d="M18 15h1m1 0h2m-6 1h2m1 0h1m3 0h1m2 0h3m2 0h1m-8 1h2m6 0h1m-16 2h1m-1 2h1m0 1h1m0 2h1m0 1h3m0 1h1m2 0h1m-2 1h1"/><path stroke="#e39f96" d="M19 15h1m-4 2h1"/><path stroke="#da7775" d="M22 15h1m1 1h2m6 0h1m-7 1h1m6 1h1m-1 1h1m0 1h1m-17 4h1m9 1h2m-8 1h1m1 0h2m1 0h2m-7 1h1m1 0h1m1 0h1"/><path stroke="#000a26" d="M31 15h1m1 1h1M12 38h1"/><path stroke="#000b25" d="M32 15h1M4 33h1m22 6h1m-10 3h1"/><path stroke="#5e53a0" d="M33 15h1"/><path stroke="#6159ab" d="M34 15h1"/><path stroke="#372c7d" d="M35 15h1"/><path stroke="#372b80" d="M36 15h1"/><path stroke="#372c80" d="M37 15h1"/><path stroke="#01113d" d="M14 16h1"/><path stroke="#e38f80" d="M15 16h1"/><path stroke="#d26867" d="M18 16h1"/><path stroke="#e3b7b4" d="M20 16h3m6 0h2m-13 1h2m11 0h1m-15 1h2m12 0h2m-16 2h1m0 1h1m-1 2h2m0 1h1"/><path stroke="#240e60" d="M35 16h1"/><path stroke="#26115f" d="M36 16h1"/><path stroke="#00082c" d="M14 17h1m0 13h1"/><path stroke="#e39c90" d="M15 17h1"/><path stroke="#e39a8f" d="M17 17h1"/><path stroke="#000923" d="M20 17h1M9 28h1m9 6h1m-9 2h1m6 3h1m4 2h1"/><path stroke="#434e65" d="M22 17h1m7 0h1m-9 1h1m7 0h1m-9 1h1m7 0h1m-9 1h1m7 0h1"/><path stroke="#e3d7d6" d="M23 17h1m3 0h1m-5 1h5m-4 1h3m-4 1h1m1 0h2m-17 3h1m-2 1h1m-3 1h2m16 0h1M8 26h1m-2 1h1m-1 1h1m21 8h1m-9 1h1m2 1h1"/><path stroke="#220c55" d="M33 17h1"/><path stroke="#000a22" d="M13 18h1m21 2h1M26 32h1"/><path stroke="#e38b7e" d="M14 18h1m12 9h1m5 8h1m-19 5h1"/><path stroke="#e3a297" d="M15 18h1"/><path stroke="#e39c95" d="M16 18h1"/><path stroke="#e3d8d6" d="M19 18h1m-1 1h1m3 0h1m3 0h1m-9 1h1m1 1h1m4 0h3M9 22h1m9 0h1m3 0h1m3 0h4m-11 1h2m6 0h3m-10 1h1m1 1h1m-3 11h1m5 0h1m0 1h1m-9 1h1m11 4h1"/><path stroke="#000725" d="M34 18h1m-1 1h1m2 0h2m-3 1h1m-23 1h1m10 0h1m8 0h1m3 0h1m-15 1h3m8 0h1m-12 1h1m1 0h2m-14 1h1m0 1h1m17 0h1m-2 1h1"/><path stroke="#e38c7e" d="M14 19h1"/><path stroke="#e3a49b" d="M15 19h1"/><path stroke="#e3a09b" d="M16 19h1"/><path stroke="#000b23" d="M29 19h1M18 30h1"/><path stroke="#e3d8da" d="M31 19h1m-1 3h1M22 37h1"/><path stroke="#e3d5d4" d="M32 19h1"/><path stroke="#000728" d="M8 20h1"/><path stroke="#000a1f" d="M12 20h1"/><path stroke="#000a20" d="M13 20h1"/><path stroke="#e38a7f" d="M14 20h1"/><path stroke="#e3988d" d="M15 20h1"/><path stroke="#e3988c" d="M16 20h1"/><path stroke="#e3d6d8" d="M18 20h1m11 1h1m-11 1h1m8 2h1m-3 1h1M18 35h1m3 1h1m4 1h1"/><path stroke="#000424" d="M20 20h1M6 25h1m27 10h1"/><path stroke="#e3d6d6" d="M24 20h1m7 0h1m-11 1h1M8 23h1m17 13h1m5 7h1"/><path stroke="#e3d4d7" d="M27 20h1"/><path stroke="#e3d8d7" d="M31 20h1M8 22h1m-2 4h1m24 12h1"/><path stroke="#ab322b" d="M33 20h1m-2 1h1m-2 5h1m-2 1h1m-9 1h1m4 0h2m6 12h1m-2 1h1m-21 1h4"/><path stroke="#e3b8b3" d="M8 21h1"/><path stroke="#e3b9b5" d="M9 21h1"/><path stroke="#000c23" d="M10 21h1"/><path stroke="#e3a59a" d="M15 21h1"/><path stroke="#e3998e" d="M16 21h1m0 1h1M8 29h1m-1 1h1m-3 1h2m-2 1h2m-2 1h2m-2 1h3m-3 1h3m-1 1h2m-2 1h2"/><path stroke="#e3d9d7" d="M19 21h1M9 25h1m-2 3h1"/><path stroke="#e3d8d4" d="M20 21h1m3 14h1"/><path stroke="#e3d8d9" d="M23 21h1m0 4h1m1 13h1m-3 1h1"/><path stroke="#e2d4d5" d="M24 21h1"/><path stroke="#e3d4d4" d="M29 21h1"/><path stroke="#e3d5d6" d="M31 21h1"/><path stroke="#e3887d" d="M33 21h1m-1 1h2m-3 1h3m-2 1h1m-2 1h1"/><path stroke="#e3d6d7" d="M10 22h1m11 1h1m0 1h1m4 0h1m-3 1h1m-7 11h1m10 0h1m-7 1h1m6 0h1m-14 1h1"/><path stroke="#e2d9d9" d="M11 22h1"/><path stroke="#000c22" d="M13 22h1m15 12h1"/><path stroke="#e18a7b" d="M14 22h1"/><path stroke="#dc7c78" d="M15 22h1"/><path stroke="#e3a295" d="M16 22h1"/><path stroke="#e3d5d5" d="M21 22h1m3 13h1m-3 1h1m1 3h1"/><path stroke="#e3d6d4" d="M22 22h1m-1 2h1m-4 15h1m11 3h1"/><path stroke="#e39d93" d="M32 22h1"/><path stroke="#e3d6d9" d="M9 23h1m-2 1h1m21 13h1"/><path stroke="#e3dddd" d="M11 23h1"/><path stroke="#e28a7e" d="M14 23h1m1 10h1"/><path stroke="#dc7875" d="M15 23h1"/><path stroke="#e3a595" d="M16 23h2"/><path stroke="#00012d" d="M23 23h1"/><path stroke="#e375b5" d="M25 23h1m-2 1h3"/><path stroke="#b3555c" d="M31 23h1m-1 2h1m-2 1h1M10 40h2m1 0h1m0 1h4m6 0h1m1 0h1m-2 1h1m-1 1h1"/><path stroke="#e39285" d="M7 24h1"/><path stroke="#e3d9da" d="M10 24h1"/><path stroke="#dc7b78" d="M15 24h1"/><path stroke="#de7875" d="M16 24h1"/><path stroke="#dd7577" d="M17 24h1"/><path stroke="#e3d7d8" d="M27 24h1M9 26h1m21 9h1m-3 3h1"/><path stroke="#e38780" d="M30 24h1"/><path stroke="#e3877f" d="M31 24h1"/><path stroke="#e3897f" d="M32 24h1m-3 1h1M15 39h1"/><path stroke="#e3dad8" d="M10 25h1"/><path stroke="#dc7a7d" d="M16 25h1"/><path stroke="#da797b" d="M17 25h1"/><path stroke="#e1807d" d="M18 25h1"/><path stroke="#da7477" d="M19 25h1"/><path stroke="#000625" d="M11 26h1m4 0h1m16 18h1"/><path stroke="#de7876" d="M17 26h1"/><path stroke="#e2837d" d="M18 26h1"/><path stroke="#d87577" d="M19 26h1"/><path stroke="#e07f7d" d="M20 26h1"/><path stroke="#e2a1a1" d="M21 26h1"/><path stroke="#e38e83" d="M29 26h1"/><path stroke="#e3d9db" d="M8 27h1"/><path stroke="#e3d9d6" d="M9 27h1"/><path stroke="#dd7774" d="M17 27h1"/><path stroke="#df7273" d="M18 27h1"/><path stroke="#da706f" d="M19 27h1"/><path stroke="#de817b" d="M20 27h1"/><path stroke="#e3928c" d="M21 27h1"/><path stroke="#e3978c" d="M23 27h1"/><path stroke="#e38a80" d="M28 27h1"/><path stroke="#e39085" d="M29 27h1"/><path stroke="#00031c" d="M31 27h1"/><path stroke="#e3aba1" d="M6 28h1"/><path stroke="#003936" d="M21 28h1"/><path stroke="#e0736b" d="M23 28h1"/><path stroke="#e3817d" d="M24 28h2"/><path stroke="#da766e" d="M26 28h1"/><path stroke="#000722" d="M30 28h1m-8 1h1m-14 4h1"/><path stroke="#e3aaa2" d="M6 29h1"/><path stroke="#e3b0a7" d="M7 29h1m-1 1h1m24 4h1m2 3h1"/><path stroke="#000821" d="M9 29h1m14 1h1m1 0h1m5 2h1m-2 8h1"/><path stroke="#00082b" d="M16 29h1"/><path stroke="#dd6f6e" d="M17 29h1"/><path stroke="#d90068" d="M19 29h1"/><path stroke="#d60066" d="M20 29h1"/><path stroke="#000820" d="M21 29h1m9 8h1"/><path stroke="#000c20" d="M28 29h1"/><path stroke="#d6006b" d="M29 29h1"/><path stroke="#d70069" d="M30 29h1"/><path stroke="#e3aca4" d="M6 30h1"/><path stroke="#d6696e" d="M17 30h1"/><path stroke="#d90065" d="M19 30h1"/><path stroke="#d30064" d="M20 30h1"/><path stroke="#6a014b" d="M21 30h1"/><path stroke="#8a004f" d="M22 30h1m5 0h1m-6 1h1"/><path stroke="#680046" d="M23 30h1m3 0h1m-3 1h1"/><path stroke="#da0067" d="M29 30h1"/><path stroke="#d9006a" d="M30 30h1"/><path stroke="#00081f" d="M31 30h1m-14 7h1"/><path stroke="#000c2b" d="M5 31h1m10 0h1"/><path stroke="#de7c74" d="M8 31h1m-4 1h1m2 0h1m-4 1h1m2 0h2m-5 1h1m3 0h1m-5 1h1m3 0h1m-3 1h1m-1 1h1m2 2h1"/><path stroke="#000829" d="M15 31h1"/><path stroke="#d7676a" d="M17 31h1"/><path stroke="#d9396e" d="M18 31h1"/><path stroke="#000a21" d="M19 31h1m4 2h1m-3 5h1m8 1h1m-1 2h1"/><path stroke="#e3227a" d="M20 31h1"/><path stroke="#e372b2" d="M21 31h1"/><path stroke="#e31977" d="M22 31h1"/><path stroke="#e3126e" d="M27 31h1"/><path stroke="#e381b6" d="M28 31h1"/><path stroke="#cd0065" d="M29 31h1"/><path stroke="#000d26" d="M30 31h1"/><path stroke="#e39f92" d="M31 31h1"/><path stroke="#e28b81" d="M15 32h3m-3 6h1m4 3h1"/><path stroke="#d93a6f" d="M18 32h1"/><path stroke="#000920" d="M19 32h1"/><path stroke="#e3217a" d="M20 32h1"/><path stroke="#e372af" d="M21 32h1"/><path stroke="#e31877" d="M22 32h1"/><path stroke="#80004c" d="M23 32h1"/><path stroke="#e3076c" d="M25 32h1"/><path stroke="#e30e6e" d="M27 32h1"/><path stroke="#e382b6" d="M28 32h1"/><path stroke="#cf0064" d="M29 32h1m-1 1h1"/><path stroke="#001127" d="M30 32h1"/><path stroke="#e39d91" d="M31 32h1"/><path stroke="#00062c" d="M14 33h1"/><path stroke="#e37e73" d="M15 33h1"/><path stroke="#e18b81" d="M17 33h1m-1 5h1m-1 1h1"/><path stroke="#da3b70" d="M18 33h1"/><path stroke="#e31569" d="M20 33h1"/><path stroke="#e31b7b" d="M21 33h1"/><path stroke="#dd0064" d="M22 33h1"/><path stroke="#df0064" d="M23 33h1"/><path stroke="#000c21" d="M26 33h1m0 5h1m-1 3h1"/><path stroke="#e30d6c" d="M27 33h1"/><path stroke="#e30c6f" d="M28 33h1"/><path stroke="#000f28" d="M30 33h1"/><path stroke="#e39487" d="M31 33h1"/><path stroke="#e38278" d="M32 33h1"/><path stroke="#e3796a" d="M15 34h1"/><path stroke="#e39e95" d="M16 34h1"/><path stroke="#e3cacc" d="M17 34h1"/><path stroke="#e3aaac" d="M18 34h1"/><path stroke="#000d24" d="M21 34h1"/><path stroke="#000d22" d="M23 34h1"/><path stroke="#deaeaf" d="M24 34h1"/><path stroke="#e3877d" d="M25 34h1M8 38h1"/><path stroke="#c15553" d="M26 34h1"/><path stroke="#000b21" d="M28 34h1"/><path stroke="#e37564" d="M30 34h1"/><path stroke="#e0867d" d="M31 34h1m0 1h1m0 1h2m-1 1h1m-2 1h3m-4 1h4m-15 5h3m6 0h1"/><path stroke="#e38d83" d="M14 35h1"/><path stroke="#e3a59f" d="M15 35h1"/><path stroke="#e3ada6" d="M16 35h1"/><path stroke="#e3cdcd" d="M17 35h1"/><path stroke="#d86e6a" d="M19 35h1"/><path stroke="#cd6161" d="M20 35h1"/><path stroke="#cc6461" d="M21 35h1"/><path stroke="#d16461" d="M22 35h1"/><path stroke="#d16763" d="M23 35h1"/><path stroke="#e39088" d="M26 35h1"/><path stroke="#da645c" d="M27 35h1"/><path stroke="#df605c" d="M28 35h1"/><path stroke="#e38376" d="M29 35h1"/><path stroke="#e3dad7" d="M30 35h1"/><path stroke="#000727" d="M5 36h1"/><path stroke="#de7f6c" d="M10 36h1"/><path stroke="#d6726c" d="M14 36h1"/><path stroke="#e3a89f" d="M15 36h1"/><path stroke="#e3a9a0" d="M16 36h1"/><path stroke="#e3cecf" d="M17 36h1"/><path stroke="#e2d6d9" d="M18 36h1"/><path stroke="#e3d4d5" d="M19 36h1"/><path stroke="#e3d5d9" d="M24 36h1"/><path stroke="#e3d6d5" d="M25 36h1"/><path stroke="#de8376" d="M10 37h1"/><path stroke="#8d585c" d="M11 37h1"/><path stroke="#562439" d="M13 37h1"/><path stroke="#d4736f" d="M14 37h1"/><path stroke="#e28c81" d="M15 37h1"/><path stroke="#e18881" d="M16 37h1"/><path stroke="#e3ced1" d="M17 37h1"/><path stroke="#e3d5d2" d="M19 37h1"/><path stroke="#e2d7d8" d="M23 37h1"/><path stroke="#e3d9d8" d="M26 37h1"/><path stroke="#e3dcdb" d="M33 37h1"/><path stroke="#000b26" d="M7 38h1"/><path stroke="#e38881" d="M9 38h1m24 2h1"/><path stroke="#db8477" d="M10 38h1"/><path stroke="#da776e" d="M11 38h1"/><path stroke="#e3b7b3" d="M13 38h1"/><path stroke="#e08a81" d="M14 38h1"/><path stroke="#e38882" d="M16 38h1"/><path stroke="#e3b3ac" d="M21 38h1m8 0h1m-11 1h1"/><path stroke="#e3cfcc" d="M23 38h1"/><path stroke="#e3d7d5" d="M25 38h1"/><path stroke="#00071f" d="M31 38h1"/><path stroke="#df8d7f" d="M8 39h1"/><path stroke="#dc7670" d="M11 39h1"/><path stroke="#e3b9b2" d="M13 39h1"/><path stroke="#e18d82" d="M14 39h1"/><path stroke="#df8d81" d="M16 39h1"/><path stroke="#e3a198" d="M21 39h1m8 0h1m-12 1h2m-2 1h1"/><path stroke="#000721" d="M22 39h1"/><path stroke="#e3c1c1" d="M23 39h1"/><path stroke="#e3c7c4" d="M26 39h1"/><path stroke="#de7e75" d="M29 39h1m-9 2h1m-2 1h2m8 0h1"/><path stroke="#e28a80" d="M14 40h1"/><path stroke="#e38b7f" d="M16 40h1"/><path stroke="#e3887f" d="M17 40h1"/><path stroke="#e38a81" d="M21 40h1"/><path stroke="#e3988a" d="M23 40h1"/><path stroke="#e3bab6" d="M24 40h1"/><path stroke="#e3b6b2" d="M25 40h1"/><path stroke="#e38782" d="M26 40h1"/><path stroke="#e3968d" d="M28 40h2m-2 1h1"/><path stroke="#df8b7f" d="M30 40h1"/><path stroke="#e3887e" d="M32 40h1"/><path stroke="#e28b80" d="M33 40h1"/><path stroke="#de8779" d="M25 41h1"/><path stroke="#e38f7f" d="M29 41h1m-2 1h1"/><path stroke="#e18b7f" d="M30 41h1"/><path stroke="#e38c7f" d="M33 41h1"/><path stroke="#e38c80" d="M19 42h1"/><path stroke="#e1d5d3" d="M22 42h2m-1 1h1"/><path stroke="#000e22" d="M24 42h1"/><path stroke="#001022" d="M26 42h1"/><path stroke="#dd8075" d="M29 42h1m-2 1h1"/><path stroke="#000521" d="M14 43h1"/><path stroke="#00061f" d="M15 43h1"/><path stroke="#e38c7c" d="M19 43h1"/><path stroke="#d8726f" d="M20 43h3m6 0h1m-10 1h1"/><path stroke="#d9756e" d="M30 43h2m-3 1h1"/><path stroke="#00031e" d="M28 44h1m0 1h1"/><path stroke="#e08980" d="M31 44h1"/><path stroke="#e38a7e" d="M32 44h1"/></svg>